<?xml version="1.0" encoding="UTF-8"?>
<svg version="1.1" xmlns="http://www.w3.org/2000/svg" width="682" height="458">
<path d="M0 0 C225.06 0 450.12 0 682 0 C682 151.14 682 302.28 682 458 C456.94 458 231.88 458 0 458 C0 306.86 0 155.72 0 0 Z " fill="#536070" transform="translate(0,0)"/>
<path d="M0 0 C6.92104903 5.07462076 11.21880417 11.07400596 15.2109375 18.62109375 C15.62730469 19.32234375 16.04367187 20.02359375 16.47265625 20.74609375 C19.50432711 26.70306105 19.59490747 32.62958209 19.6484375 39.18359375 C19.65858887 40.07022705 19.66874023 40.95686035 19.67919922 41.87036133 C19.59922583 47.93651157 18.46232495 52.99391162 16.2109375 58.62109375 C13.08936289 57.10952331 10.23106978 55.36433446 7.33837891 53.44726562 C-8.16126586 43.18922793 -24.1428165 39.79719217 -42.69921875 43.375 C-45.81942811 44.30558876 -48.78751003 45.36280101 -51.7890625 46.62109375 C-52.51996094 46.90984375 -53.25085938 47.19859375 -54.00390625 47.49609375 C-59.21206962 49.80624938 -63.3649234 53.34488906 -67.6875 57.01171875 C-69.7890625 58.62109375 -69.7890625 58.62109375 -71.7890625 58.62109375 C-76.84931161 44.81836069 -77.41763014 33.36039239 -71.7890625 19.62109375 C-65.55997609 6.61004344 -55.4475725 -1.63047154 -42.1015625 -6.75390625 C-27.50976423 -11.20627547 -12.64184477 -8.20287986 0 0 Z " fill="#93DAD7" transform="translate(340.7890625,101.37890625)"/>
<path d="M0 0 C10.17570029 6.03059885 17.40234683 15.23650188 22 26 C22.34385742 26.76779785 22.68771484 27.5355957 23.04199219 28.32666016 C24.6589679 32.83886303 24.38105837 37.37485777 24.375 42.125 C24.37628906 43.15439697 24.37757813 44.18379395 24.37890625 45.24438477 C24.27716462 52.5368314 23.55428449 58.51025734 20 65 C19.34 65 18.68 65 18 65 C17.89558594 65.74507813 17.79117188 66.49015625 17.68359375 67.2578125 C15.89647245 74.42672194 8.68625315 79.52626292 2.765625 83.390625 C-9.28282666 90.40187088 -22.87076874 92.63111581 -36.50390625 89.08984375 C-38.78207967 88.1857038 -40.8909246 87.24324445 -43 86 C-42.45472656 85.30777344 -42.45472656 85.30777344 -41.8984375 84.6015625 C-28.43257212 67.13046536 -23.80196919 51.30360205 -26.4296875 29.421875 C-28.78651565 18.53973022 -34.58044365 9.1434155 -42 1 C-42 0.34 -42 -0.32 -42 -1 C-27.96658447 -7.65992601 -13.78234606 -6.35984427 0 0 Z " fill="#94DAD7" transform="translate(398,98)"/>
<path d="M0 0 C0.51095215 0.39896484 1.0219043 0.79792969 1.54833984 1.20898438 C17.17801006 13.3250078 33.20663761 18.58559493 53 17 C65.37221624 14.88922107 75.61306828 9.15180913 85 1 C85.66 1 86.32 1 87 1 C89.57961834 7.4963783 90.55074015 13.27483468 90.5 20.25 C90.49427979 21.1687793 90.48855957 22.08755859 90.48266602 23.03417969 C90.11828673 36.99591795 84.26827546 47.20293177 74.25 56.75 C69.67671831 60.5922698 64.50815613 62.8016776 59 65 C58.28328125 65.36609375 57.5665625 65.7321875 56.828125 66.109375 C46.24448037 69.44234596 32.09933427 68.37584025 22.26953125 63.35546875 C21.52058594 62.90816406 20.77164062 62.46085937 20 62 C18.3603125 61.0409375 18.3603125 61.0409375 16.6875 60.0625 C15.800625 59.381875 14.91375 58.70125 14 58 C13.45085937 57.60554688 12.90171875 57.21109375 12.3359375 56.8046875 C3.68616409 50.13635998 -2.03442592 39.65364413 -4 29 C-4.32430833 25.60221379 -4.45009374 22.22464431 -4.5 18.8125 C-4.51861084 17.98113525 -4.53722168 17.14977051 -4.55639648 16.29321289 C-4.49310717 10.09884798 -2.88095304 5.45592786 0 0 Z " fill="#97DCD8" transform="translate(332,183)"/>
<path d="M0 0 C0.87881836 -0.01015137 1.75763672 -0.02030273 2.66308594 -0.03076172 C8.69081472 0.0496533 13.71980335 1.20603189 19.3125 3.4375 C18.0714311 7.1607067 16.07109975 8.67890025 13.3125 11.4375 C12.755625 12.365625 12.19875 13.29375 11.625 14.25 C11.191875 14.971875 10.75875 15.69375 10.3125 16.4375 C9.6525 16.4375 8.9925 16.4375 8.3125 16.4375 C8.126875 17.49130859 8.126875 17.49130859 7.9375 18.56640625 C7.05169832 22.6355577 5.62755426 26.47732702 4.25 30.40234375 C-0.29394395 45.1133623 1.50955504 61.80820657 8.41650391 75.36083984 C10.84604376 79.88650264 13.69502377 83.86937394 17.02734375 87.765625 C18.3125 89.4375 18.3125 89.4375 18.3125 91.4375 C7.24261544 96.33155423 -7.5521057 96.41127879 -18.875 92.375 C-24.48128768 89.81950907 -29.19750216 86.64521899 -33.6875 82.4375 C-34.31269531 81.85355469 -34.93789063 81.26960938 -35.58203125 80.66796875 C-44.31000644 71.63575042 -47.86552986 60.47594823 -47.875 48.25 C-47.88724609 47.43724609 -47.89949219 46.62449219 -47.91210938 45.78710938 C-47.94477467 32.10034987 -43.409268 22.65822135 -34.06640625 12.73046875 C-24.25400866 3.27254201 -13.39916953 0.11013658 0 0 Z " fill="#96DBD8" transform="translate(313.6875,155.5625)"/>
<path d="M0 0 C4.516875 -0.0825 9.03375 -0.165 13.6875 -0.25 C15.10377686 -0.28641602 16.52005371 -0.32283203 17.97924805 -0.36035156 C19.10371338 -0.3703418 20.22817871 -0.38033203 21.38671875 -0.390625 C22.53358154 -0.41157227 23.68044434 -0.43251953 24.86206055 -0.45410156 C28.66442415 0.09615101 30.28125209 1.34271191 33 4 C35.09572509 8.19145019 34.55772151 13.44729504 34 18 C32.58815537 20.56555349 31.49870361 21.33419759 29 23 C28.34 23 27.68 23 27 23 C27.84884766 24.78857422 27.84884766 24.78857422 28.71484375 26.61328125 C29.45581836 28.17964531 30.19669888 29.74605388 30.9375 31.3125 C31.49727539 32.49102539 31.49727539 32.49102539 32.06835938 33.69335938 C32.42607422 34.45068359 32.78378906 35.20800781 33.15234375 35.98828125 C33.48226318 36.68477783 33.81218262 37.38127441 34.15209961 38.09887695 C35 40 35 40 36 43 C34.68 43 33.36 43 32 43 C30.66180502 40.3773768 29.3292849 37.75213401 28 35.125 C27.6184375 34.37863281 27.236875 33.63226563 26.84375 32.86328125 C26.4828125 32.14785156 26.121875 31.43242187 25.75 30.6953125 C25.41484375 30.03547363 25.0796875 29.37563477 24.734375 28.69580078 C24 27 24 27 24 25 C17.4 25 10.8 25 4 25 C4 30.94 4 36.88 4 43 C2.68 43 1.36 43 0 43 C0 28.81 0 14.62 0 0 Z " fill="#89CAC9" transform="translate(181,277)"/>
<path d="M0 0 C0.99 0 1.98 0 3 0 C3 14.85 3 29.7 3 45 C2.34 45 1.68 45 1 45 C1 43.35 1 41.7 1 40 C0.34 40 -0.32 40 -1 40 C-1.28875 40.639375 -1.5775 41.27875 -1.875 41.9375 C-3 44 -3 44 -5 45 C-10.06314679 45.49734614 -14.50663247 45.7923991 -19.0625 43.375 C-22.98085463 38.57185562 -23.29422444 33.47452618 -23.3125 27.4375 C-23.32925781 26.15746094 -23.34601563 24.87742187 -23.36328125 23.55859375 C-22.86688302 18.69602609 -21.11975446 16.21855633 -17.875 12.6875 C-13.94320279 10.37970598 -10.46685163 10.31279206 -6 11 C-2.23672566 12.52654867 -2.23672566 12.52654867 -1 15 C-0.67 10.05 -0.34 5.1 0 0 Z " fill="#5C6A78" transform="translate(466,275)"/>
<path d="M0 0 C0.99 0 1.98 0 3 0 C3 14.85 3 29.7 3 45 C2.34 45 1.68 45 1 45 C1 43.35 1 41.7 1 40 C0.34 40 -0.32 40 -1 40 C-1.28875 40.639375 -1.5775 41.27875 -1.875 41.9375 C-3 44 -3 44 -5 45 C-10.08942479 45.49992739 -14.51742937 45.81692667 -19.0625 43.3125 C-22.98977855 38.62510302 -23.25313555 34.44613582 -23.1875 28.4375 C-23.18105469 27.13683594 -23.17460937 25.83617187 -23.16796875 24.49609375 C-23.03722463 21.77479165 -22.81823822 19.57254097 -22 17 C-21.34 17 -20.68 17 -20 17 C-19.7525 16.38125 -19.505 15.7625 -19.25 15.125 C-17.69447068 12.48060015 -16.92378529 11.92330062 -14 11 C-7.22621512 10.35487763 -6.78686553 10.37050757 -1 15 C-0.67 10.05 -0.34 5.1 0 0 Z " fill="#606E7C" transform="translate(314,275)"/>
<path d="M0 0 C2.687308 2.19870655 3.95996711 3.83999418 4.38134766 7.32299805 C4.428479 8.87047729 4.428479 8.87047729 4.4765625 10.44921875 C4.51523437 11.56748047 4.55390625 12.68574219 4.59375 13.83789062 C4.6246875 15.00513672 4.655625 16.17238281 4.6875 17.375 C4.72617187 18.55384766 4.76484375 19.73269531 4.8046875 20.94726562 C4.89904391 23.86051977 4.98463161 26.77376607 5.0625 29.6875 C6.3825 30.0175 7.7025 30.3475 9.0625 30.6875 C9.0625 31.3475 9.0625 32.0075 9.0625 32.6875 C6.7525 32.6875 4.4425 32.6875 2.0625 32.6875 C1.4025 31.3675 0.7425 30.0475 0.0625 28.6875 C-0.700625 29.3475 -1.46375 30.0075 -2.25 30.6875 C-6.76271447 33.68523176 -11.73101233 33.58953586 -16.9375 32.6875 C-20.125 30.625 -20.125 30.625 -21.9375 27.6875 C-22.5625 24.1875 -22.5625 24.1875 -21.9375 20.6875 C-18.82110508 16.56285966 -15.97780667 14.69556133 -10.9375 13.6875 C-6.93117378 13.53873757 -2.94426898 13.57079799 1.0625 13.6875 C1.00243922 12.22802295 0.9136311 10.76970728 0.8125 9.3125 C0.76609375 8.50039063 0.7196875 7.68828125 0.671875 6.8515625 C0.2679764 4.55827483 0.2679764 4.55827483 -1.69921875 3.4140625 C-4.09228319 2.63725624 -5.98824306 2.42049995 -8.5 2.4375 C-9.26441406 2.43234375 -10.02882813 2.4271875 -10.81640625 2.421875 C-13.23732762 2.5645439 -13.23732762 2.5645439 -15.9375 4.6875 C-17.14200304 7.23933404 -17.14200304 7.23933404 -17.9375 9.6875 C-18.9275 9.6875 -19.9175 9.6875 -20.9375 9.6875 C-20.44914432 3.21678723 -20.44914432 3.21678723 -18.125 0.8125 C-12.55699669 -2.05104456 -5.72548287 -2.55819447 0 0 Z " fill="#90D2D0" transform="translate(278.9375,287.3125)"/>
<path d="M0 0 C2.99131619 2.70642893 4.30529283 4.56251262 5.625 8.375 C5.625 11.015 5.625 13.655 5.625 16.375 C-2.625 16.375 -10.875 16.375 -19.375 16.375 C-18.715 20.005 -18.055 23.635 -17.375 27.375 C-11.88454257 29.57118297 -8.11220834 30.53071019 -2.5625 28.1875 C-0.04658069 26.10288114 0.70370137 24.47391358 1.625 21.375 C2.615 21.375 3.605 21.375 4.625 21.375 C4.9375 23.5625 4.9375 23.5625 4.625 26.375 C1.5546504 29.93014164 -0.48881807 32.21803261 -5.23828125 32.61328125 C-6.37652344 32.63777344 -7.51476562 32.66226563 -8.6875 32.6875 C-9.81800781 32.72488281 -10.94851563 32.76226562 -12.11328125 32.80078125 C-16.06621787 32.28476916 -17.60641029 31.19777919 -20.375 28.375 C-23.66113656 22.61024167 -24.06395087 15.85791471 -23.375 9.375 C-22.375 6.25 -22.375 6.25 -21.375 4.375 C-20.715 4.375 -20.055 4.375 -19.375 4.375 C-19.148125 3.75625 -18.92125 3.1375 -18.6875 2.5 C-14.89984927 -3.6323869 -5.68202767 -2.7357911 0 0 Z " fill="#8DCDCC" transform="translate(432.375,287.625)"/>
<path d="M0 0 C3.1271359 2.65332743 4.7634353 4.85280591 6.0625 8.75 C6.0625 11.39 6.0625 14.03 6.0625 16.75 C-2.1875 16.75 -10.4375 16.75 -18.9375 16.75 C-17.0900843 26.50415792 -17.0900843 26.50415792 -11.9375 29.75 C-9.6820175 30.14642587 -9.6820175 30.14642587 -7.375 30 C-6.61058594 29.98453125 -5.84617188 29.9690625 -5.05859375 29.953125 C-2.74976263 29.81206055 -2.74976263 29.81206055 0.0625 28.75 C0.5265625 27.265 0.5265625 27.265 1 25.75 C1.350625 24.76 1.70125 23.77 2.0625 22.75 C4.1875 21.875 4.1875 21.875 6.0625 21.75 C5.5600516 26.14642348 4.08954059 28.5448982 1.0625 31.75 C-4.15650621 33.48966874 -10.87545996 34.15562219 -15.98828125 31.80859375 C-19.21917042 29.25114054 -20.72216606 26.59764917 -21.9375 22.75 C-22.23828125 19.41015625 -22.23828125 19.41015625 -22.25 15.8125 C-22.26675781 14.62785156 -22.28351563 13.44320313 -22.30078125 12.22265625 C-21.82873419 7.71029246 -20.32369507 4.42498571 -17.4375 0.9375 C-12.82673456 -2.71268931 -5.12759313 -2.18195452 0 0 Z " fill="#8CCECC" transform="translate(245.9375,287.25)"/>
<path d="M0 0 C2.0625 1.625 2.0625 1.625 4.0625 3.625 C4.28955078 6.33056641 4.28955078 6.33056641 4.2578125 9.7265625 C4.25136719 10.93828125 4.24492187 12.15 4.23828125 13.3984375 C4.22152344 14.66945313 4.20476562 15.94046875 4.1875 17.25 C4.17847656 18.52875 4.16945313 19.8075 4.16015625 21.125 C4.13652303 24.29185167 4.10357629 27.45833424 4.0625 30.625 C5.7125 30.625 7.3625 30.625 9.0625 30.625 C9.0625 31.285 9.0625 31.945 9.0625 32.625 C6.7525 32.625 4.4425 32.625 2.0625 32.625 C1.4025 31.305 0.7425 29.985 0.0625 28.625 C-0.700625 29.285 -1.46375 29.945 -2.25 30.625 C-6.76271447 33.62273176 -11.73101233 33.52703586 -16.9375 32.625 C-20.125 30.5625 -20.125 30.5625 -21.9375 27.625 C-22.5625 24.125 -22.5625 24.125 -21.9375 20.625 C-18.82110508 16.50035966 -15.97780667 14.63306133 -10.9375 13.625 C-6.93117378 13.47623757 -2.94426898 13.50829799 1.0625 13.625 C1.00243922 12.16552295 0.9136311 10.70720728 0.8125 9.25 C0.76609375 8.43789063 0.7196875 7.62578125 0.671875 6.7890625 C0.26890797 4.49479173 0.26890797 4.49479173 -1.703125 3.359375 C-5.460048 2.12458213 -9.03684064 2.02269231 -12.9375 2.625 C-15.43910818 4.50120613 -16.55695652 5.86391303 -17.9375 8.625 C-18.5975 8.625 -19.2575 8.625 -19.9375 8.625 C-19.875 5.3125 -19.875 5.3125 -18.9375 1.625 C-13.18030975 -2.09318537 -6.28667904 -2.94270083 0 0 Z " fill="#8CD0CE" transform="translate(497.9375,287.375)"/>
<path d="M0 0 C4.3410087 2.48402164 6.75037588 5.25503389 8.359375 10.08203125 C8.546875 12.95703125 8.546875 12.95703125 8.359375 15.08203125 C7.039375 15.08203125 5.719375 15.08203125 4.359375 15.08203125 C4.318125 14.00953125 4.276875 12.93703125 4.234375 11.83203125 C3.67686221 8.01694211 3.67686221 8.01694211 1.109375 5.70703125 C-4.39521229 2.62819429 -11.75590462 2.49488546 -17.86328125 3.41796875 C-22.08471501 4.84676172 -24.652861 7.7370219 -26.7578125 11.5078125 C-29.06260128 18.22841342 -28.88516143 26.26858162 -25.953125 32.76953125 C-24.19180963 36.03847458 -21.99088553 37.52042987 -18.640625 39.08203125 C-15.00240395 39.55582688 -15.00240395 39.55582688 -11.140625 39.45703125 C-9.20703125 39.46863281 -9.20703125 39.46863281 -7.234375 39.48046875 C-3.4995071 39.06638557 -1.61659973 38.3140123 1.359375 36.08203125 C3.95361053 32.57981329 3.93775698 28.29821145 4.359375 24.08203125 C-0.920625 24.08203125 -6.200625 24.08203125 -11.640625 24.08203125 C-11.640625 23.09203125 -11.640625 22.10203125 -11.640625 21.08203125 C-5.040625 21.08203125 1.559375 21.08203125 8.359375 21.08203125 C8.359375 28.34203125 8.359375 35.60203125 8.359375 43.08203125 C7.369375 43.08203125 6.379375 43.08203125 5.359375 43.08203125 C5.029375 41.43203125 4.699375 39.78203125 4.359375 38.08203125 C3.9675 38.53578125 3.575625 38.98953125 3.171875 39.45703125 C-1.30917282 43.4745224 -6.36952728 43.44711188 -12.078125 43.45703125 C-12.81611328 43.48152344 -13.55410156 43.50601563 -14.31445312 43.53125 C-19.55332223 43.55919064 -22.4836276 42.52230496 -26.640625 39.08203125 C-32.28052639 31.87549059 -33.4668795 25.03100308 -32.640625 16.08203125 C-31.30902202 10.32795122 -28.83086319 5.60281531 -24.1328125 1.890625 C-17.23177979 -2.39638017 -7.55923255 -2.62783972 0 0 Z " fill="#90CFCE" transform="translate(392.640625,276.91796875)"/>
<path d="M0 0 C3.75119675 -0.13482736 7.49756297 -0.23404403 11.25 -0.3125 C12.84521484 -0.3753418 12.84521484 -0.3753418 14.47265625 -0.43945312 C22.33040479 -0.56300263 22.33040479 -0.56300263 25.69921875 2.26953125 C26.88009042 4.74829791 27.56797117 6.28630214 27.5625 9 C27.58441406 9.639375 27.60632813 10.27875 27.62890625 10.9375 C26.53886989 14.51227761 25.04068952 15.82433422 22 18 C18.20960295 18.60846931 14.5137483 18.47162101 10.6875 18.3125 C9.66076172 18.28994141 8.63402344 18.26738281 7.57617188 18.24414062 C5.05015334 18.18539601 2.52488776 18.09572026 0 18 C0 12.06 0 6.12 0 0 Z " fill="#596776" transform="translate(185,280)"/>
<path d="M0 0 C1.91635217 -0.05423638 3.83314925 -0.09289963 5.75 -0.125 C7.35101563 -0.15980469 7.35101563 -0.15980469 8.984375 -0.1953125 C11.95742142 -0.00275768 13.54985868 0.35522921 16 2 C18.03676815 5.66618267 18.44168716 8.84814066 18 13 C16.5 15.375 16.5 15.375 15 17 C15.66 17.66 16.32 18.32 17 19 C17.40047444 21.32275177 17.7397104 23.65739357 18 26 C19.98 26.66 21.96 27.32 24 28 C24 22.39 24 16.78 24 11 C23.34 11 22.68 11 22 11 C22 10.34 22 9.68 22 9 C26.62 8.67 31.24 8.34 36 8 C36.66 9.98 37.32 11.96 38 14 C36.68 13.34 35.36 12.68 34 12 C34 11.34 34 10.68 34 10 C32.02 10 30.04 10 28 10 C28 12.97 28 15.94 28 19 C29.32 19 30.64 19 32 19 C32 18.34 32 17.68 32 17 C32.66 17 33.32 17 34 17 C34 18.98 34 20.96 34 23 C33.34 23 32.68 23 32 23 C32 22.01 32 21.02 32 20 C30.68 20 29.36 20 28 20 C28 22.64 28 25.28 28 28 C33.03478441 27.76586026 33.03478441 27.76586026 36.9375 24.9375 C37.4634375 23.9784375 37.4634375 23.9784375 38 23 C38 25.31 38 27.62 38 30 C34.75007554 30.05819424 31.50028565 30.09366116 28.25 30.125 C27.32960938 30.14175781 26.40921875 30.15851563 25.4609375 30.17578125 C24.57148438 30.18222656 23.68203125 30.18867188 22.765625 30.1953125 C21.54020996 30.21102295 21.54020996 30.21102295 20.29003906 30.22705078 C17.74187875 29.97440802 16.1516479 29.3748059 14 28 C13.27734375 25.94140625 13.27734375 25.94140625 12.9375 23.5625 C12.41519735 20.00027854 11.78171532 18.34448093 9 16 C9.99 15.34 10.98 14.68 12 14 C12.36460453 11.33346095 12.36460453 11.33346095 12.1875 8.375 C12.16042969 7.37210937 12.13335937 6.36921875 12.10546875 5.3359375 C12.07066406 4.56507813 12.03585937 3.79421875 12 3 C10.35 2.67 8.7 2.34 7 2 C7.13867261 6.10444167 7.28716103 10.2084704 7.4375 14.3125 C7.47681641 15.47974609 7.51613281 16.64699219 7.55664062 17.84960938 C7.61948242 19.52700195 7.61948242 19.52700195 7.68359375 21.23828125 C7.72025146 22.26993408 7.75690918 23.30158691 7.79467773 24.36450195 C7.90161242 27.10748258 7.90161242 27.10748258 9 30 C6.36 30 3.72 30 1 30 C1 29.34 1 28.68 1 28 C1.66 28 2.32 28 3 28 C2.67 19.75 2.34 11.5 2 3 C1.34 2.67 0.68 2.34 0 2 C0 1.34 0 0.68 0 0 Z " fill="#8ED3D1" transform="translate(398,332)"/>
<path d="M0 0 C3.59962705 3.23966434 4.34098177 4.8188359 4.875 9.625 C4.03330004 17.76143296 -2.52701672 22.35765514 -8.5 27.25 C-10.50457219 28.74626996 -12.51739766 30.21496164 -14.578125 31.6328125 C-17.20321729 33.84173162 -19.3036512 36.61438144 -21.5 39.25 C-12.92 39.25 -4.34 39.25 4.5 39.25 C4.5 40.24 4.5 41.23 4.5 42.25 C-5.07 42.25 -14.64 42.25 -24.5 42.25 C-24.5 35.57582737 -24.13233928 34.91990487 -19.9765625 30.46484375 C-16.36414476 27.23417994 -12.43549239 24.49886085 -8.38818359 21.83886719 C-4.72749894 19.38099328 -2.33522786 17.29140604 -0.5 13.25 C0.08045968 8.50956129 0.08045968 8.50956129 -1.875 4.375 C-5.85938975 1.61657633 -9.7802455 1.54081409 -14.5 2.25 C-18.38707974 4.92236732 -19.32746076 6.44039278 -20.3125 11.0625 C-20.374375 12.114375 -20.43625 13.16625 -20.5 14.25 C-21.82 14.25 -23.14 14.25 -24.5 14.25 C-24.82456694 10.19291326 -24.71697989 7.70131817 -22.9375 4 C-17.02515252 -2.67034074 -7.88457876 -3.94228938 0 0 Z " fill="#8FCECD" transform="translate(349.5,277.75)"/>
<path d="M0 0 C0.33 2.31 0.66 4.62 1 7 C0.62875 6.525625 0.2575 6.05125 -0.125 5.5625 C-2.62646962 3.47794198 -4.81593418 3.35378509 -8 3 C-8 5.64 -8 8.28 -8 11 C-6.35 10.34 -4.7 9.68 -3 9 C-3 10.98 -3 12.96 -3 15 C-4.65 14.01 -6.3 13.02 -8 12 C-8 14.64 -8 17.28 -8 20 C-4.535 19.505 -4.535 19.505 -1 19 C-0.67 17.68 -0.34 16.36 0 15 C0.66 15 1.32 15 2 15 C2 16.65 2 18.3 2 20 C2.66 20 3.32 20 4 20 C4.18175781 19.29875 4.36351562 18.5975 4.55078125 17.875 C6.07999067 12.10321471 7.80054363 6.55100893 10 1 C10.99 1 11.98 1 13 1 C13.17128418 1.52956299 13.34256836 2.05912598 13.51904297 2.60473633 C14.29961116 5.00889688 15.08722189 7.41069278 15.875 9.8125 C16.14441406 10.64587891 16.41382813 11.47925781 16.69140625 12.33789062 C16.95566406 13.14033203 17.21992188 13.94277344 17.4921875 14.76953125 C17.73308105 15.50792236 17.97397461 16.24631348 18.22216797 17.00708008 C19.02070642 19.26312595 19.02070642 19.26312595 21 22 C18.03 22 15.06 22 12 22 C12 21.34 12 20.68 12 20 C12.66 20 13.32 20 14 20 C14 18.68 14 17.36 14 16 C11.69 16 9.38 16 7 16 C7 17.32 7 18.64 7 20 C7.66 20 8.32 20 9 20 C9 20.66 9 21.32 9 22 C0.88611956 23.21521251 -6.85351368 22.76299944 -15 22 C-15 21.34 -15 20.68 -15 20 C-14.34 20 -13.68 20 -13 20 C-13 14.39 -13 8.78 -13 3 C-13.66 3 -14.32 3 -15 3 C-15 2.34 -15 1.68 -15 1 C-12.8750734 0.83240016 -10.75005624 0.66594799 -8.625 0.5 C-7.44164062 0.4071875 -6.25828125 0.314375 -5.0390625 0.21875 C-3.36213157 0.09804546 -1.68126944 0 0 0 Z " fill="#8ACDCB" transform="translate(217,340)"/>
<path d="M0 0 C0.99 0 1.98 0 3 0 C3 14.85 3 29.7 3 45 C2.34 45 1.68 45 1 45 C1 43.35 1 41.7 1 40 C0.34 40 -0.32 40 -1 40 C-1.28875 40.639375 -1.5775 41.27875 -1.875 41.9375 C-3 44 -3 44 -5 45 C-10.06314679 45.49734614 -14.50663247 45.7923991 -19.0625 43.375 C-22.98085463 38.57185562 -23.29422444 33.47452618 -23.3125 27.4375 C-23.32925781 26.15746094 -23.34601563 24.87742187 -23.36328125 23.55859375 C-22.86688302 18.69602609 -21.11975446 16.21855633 -17.875 12.6875 C-13.94320279 10.37970598 -10.46685163 10.31279206 -6 11 C-2.23672566 12.52654867 -2.23672566 12.52654867 -1 15 C-0.67 10.05 -0.34 5.1 0 0 Z M-19 18 C-19.99495148 21.65865068 -20.19213313 25.21936472 -20.25 29 C-20.27578125 30.010625 -20.3015625 31.02125 -20.328125 32.0625 C-19.86667869 36.19354315 -18.09154658 38.59701492 -15.58984375 41.8125 C-13.43444842 43.42242673 -12.20874258 43.28559785 -9.5625 43 C-6.05145266 42.48618819 -5.17301701 42.16436616 -2.5 39.625 C-0.14139354 35.49743869 0.1855481 32.31924647 0.25 27.625 C0.27578125 26.50351562 0.3015625 25.38203125 0.328125 24.2265625 C-0.0331232 20.67428851 -0.90263918 18.85302759 -3 16 C-8.39977893 11.9501658 -14.646221 13.26206403 -19 18 Z " fill="#8ED1CF" transform="translate(466,275)"/>
<path d="M0 0 C0.99 0 1.98 0 3 0 C3 14.85 3 29.7 3 45 C2.34 45 1.68 45 1 45 C1 43.35 1 41.7 1 40 C0.34 40 -0.32 40 -1 40 C-1.28875 40.639375 -1.5775 41.27875 -1.875 41.9375 C-3 44 -3 44 -5 45 C-10.08942479 45.49992739 -14.51742937 45.81692667 -19.0625 43.3125 C-22.98977855 38.62510302 -23.25313555 34.44613582 -23.1875 28.4375 C-23.18105469 27.13683594 -23.17460937 25.83617187 -23.16796875 24.49609375 C-23.03722463 21.77479165 -22.81823822 19.57254097 -22 17 C-21.34 17 -20.68 17 -20 17 C-19.7525 16.38125 -19.505 15.7625 -19.25 15.125 C-17.69447068 12.48060015 -16.92378529 11.92330062 -14 11 C-7.22621512 10.35487763 -6.78686553 10.37050757 -1 15 C-0.67 10.05 -0.34 5.1 0 0 Z M-19 19 C-19.33 19.33 -19.66 19.66 -20 20 C-20.12743425 22.43014159 -20.18521121 24.81930235 -20.1875 27.25 C-20.19974609 27.91902344 -20.21199219 28.58804687 -20.22460938 29.27734375 C-20.23927013 34.25222544 -19.76904119 38.09991872 -16.3125 41.8125 C-12.99060274 43.51833914 -10.68485182 43.45252566 -7 43 C-3.77381267 40.9209015 -2.1330698 39.19960471 0 36 C0.35753552 32.50999771 0.35753552 32.50999771 0.3125 28.625 C0.32925781 27.31789063 0.34601563 26.01078125 0.36328125 24.6640625 C-0.0133753 20.86509641 -0.72483218 19.01306009 -3 16 C-9.03043224 11.47717582 -14.60515141 13.70032964 -19 19 Z " fill="#92D5D3" transform="translate(314,275)"/>
<path d="M0 0 C2.97 0 5.94 0 9 0 C8.01 0.495 8.01 0.495 7 1 C7 6.94 7 12.88 7 19 C12.98538237 17.68702878 12.98538237 17.68702878 15 14 C15.33 15.65 15.66 17.3 16 19 C16.32613281 18.21496094 16.65226562 17.42992187 16.98828125 16.62109375 C19.29789053 11.06849327 21.61590894 5.52105299 24 0 C24.66 0 25.32 0 26 0 C26.20681396 0.56509277 26.41362793 1.13018555 26.62670898 1.71240234 C27.56243071 4.26704615 28.49994317 6.82102914 29.4375 9.375 C29.92573242 10.70917969 29.92573242 10.70917969 30.42382812 12.0703125 C30.73642578 12.92109375 31.04902344 13.771875 31.37109375 14.6484375 C31.65911865 15.43395996 31.94714355 16.21948242 32.24389648 17.02880859 C32.97610705 19.03323485 32.97610705 19.03323485 34 21 C31.03 21 28.06 21 25 21 C25 20.34 25 19.68 25 19 C25.66 19 26.32 19 27 19 C27 17.68 27 16.36 27 15 C24.69 15 22.38 15 20 15 C20 16.32 20 17.64 20 19 C20.66 19 21.32 19 22 19 C22 19.66 22 20.32 22 21 C14.50280391 22.14364008 7.53181418 21.75667376 0 21 C0 20.34 0 19.68 0 19 C0.66 19 1.32 19 2 19 C2 13.39 2 7.78 2 2 C1.34 2 0.68 2 0 2 C0 1.34 0 0.68 0 0 Z " fill="#8ACCCB" transform="translate(438,341)"/>
<path d="M0 0 C10.71056619 -0.76870092 10.71056619 -0.76870092 15.25 1.9375 C17.56206867 5.98362017 17.81310033 9.42952028 17 14 C16.01 15.485 16.01 15.485 15 17 C15.28875 17.515625 15.5775 18.03125 15.875 18.5625 C17.28713176 21.62211881 18.09922962 24.75722662 19 28 C19.33 28.66 19.66 29.32 20 30 C18.02 29.67 16.04 29.34 14 29 C13.80664062 28.28972656 13.61328125 27.57945312 13.4140625 26.84765625 C13.02347656 25.46900391 13.02347656 25.46900391 12.625 24.0625 C12.36976563 23.14597656 12.11453125 22.22945313 11.8515625 21.28515625 C11.23339896 18.83254913 11.23339896 18.83254913 9 18 C9 17.34 9 16.68 9 16 C9.99 15.34 10.98 14.68 12 14 C12.36416047 11.56306689 12.36416047 11.56306689 12.1875 8.875 C12.14689453 7.50988281 12.14689453 7.50988281 12.10546875 6.1171875 C12.05326172 5.06917969 12.05326172 5.06917969 12 4 C9.525 3.01 9.525 3.01 7 2 C7 10.58 7 19.16 7 28 C7.66 28 8.32 28 9 28 C9 28.66 9 29.32 9 30 C6.03 30 3.06 30 0 30 C0 29.34 0 28.68 0 28 C0.66 28 1.32 28 2 28 C1.86132739 23.89555833 1.71283897 19.7915296 1.5625 15.6875 C1.52318359 14.52025391 1.48386719 13.35300781 1.44335938 12.15039062 C1.40146484 11.03212891 1.35957031 9.91386719 1.31640625 8.76171875 C1.27974854 7.73006592 1.24309082 6.69841309 1.20532227 5.63549805 C1.09838758 2.89251742 1.09838758 2.89251742 0 0 Z " fill="#8CCFCD" transform="translate(265,332)"/>
<path d="M0 0 C2.27024968 -0.08097324 4.54132075 -0.13917704 6.8125 -0.1875 C8.07707031 -0.22230469 9.34164062 -0.25710938 10.64453125 -0.29296875 C14 0 14 0 15.9296875 1.19921875 C17.34602109 3.58217417 17.36589798 5.23973515 17.3125 8 C17.30863281 8.86625 17.30476563 9.7325 17.30078125 10.625 C17 13 17 13 15 16 C15.66 16.99 16.32 17.98 17 19 C17.33333333 21.33333333 17.66666667 23.66666667 18 26 C18.66 26.99 19.32 27.98 20 29 C18.02 28.67 16.04 28.34 14 28 C13.80664062 27.22914063 13.61328125 26.45828125 13.4140625 25.6640625 C13.02347656 24.15972656 13.02347656 24.15972656 12.625 22.625 C12.36976563 21.62726563 12.11453125 20.62953125 11.8515625 19.6015625 C11.17595681 16.87458985 11.17595681 16.87458985 9 15 C9.49113281 14.62230469 9.98226562 14.24460937 10.48828125 13.85546875 C12.57897883 11.28936708 12.30262202 9.57429067 12.1875 6.3125 C12.16042969 5.31863281 12.13335937 4.32476562 12.10546875 3.30078125 C12.07066406 2.54152344 12.03585938 1.78226562 12 1 C10.35 1 8.7 1 7 1 C7.13837796 5.29194146 7.28695939 9.58346929 7.4375 13.875 C7.47681641 15.09832031 7.51613281 16.32164062 7.55664062 17.58203125 C7.61948242 19.33193359 7.61948242 19.33193359 7.68359375 21.1171875 C7.72025146 22.19597168 7.75690918 23.27475586 7.79467773 24.38623047 C7.83376643 26.98069536 7.83376643 26.98069536 9 29 C6.03 29 3.06 29 0 29 C0 28.34 0 27.68 0 27 C0.66 27 1.32 27 2 27 C1.86160047 22.87471501 1.7130259 18.74985892 1.5625 14.625 C1.52318359 13.449375 1.48386719 12.27375 1.44335938 11.0625 C1.40146484 9.94101562 1.35957031 8.81953125 1.31640625 7.6640625 C1.27974854 6.62717285 1.24309082 5.5902832 1.20532227 4.52197266 C1.15835777 2.00574834 1.15835777 2.00574834 0 0 Z " fill="#8AD0CE" transform="translate(181,333)"/>
<path d="M0 0 C1.07765625 0.00902344 2.1553125 0.01804687 3.265625 0.02734375 C4.08546875 0.03894531 4.9053125 0.05054688 5.75 0.0625 C5.95622359 4.28124554 5.99996091 5.69112951 3.5625 9.3125 C-0.06344556 12.857869 -2.32752615 13.8663292 -7.3125 14.375 C-10.67635093 14.01714352 -12.03158551 13.62220903 -14.25 11.0625 C-14.75 8.125 -14.75 8.125 -14.25 5.0625 C-10.30146402 -0.15520826 -6.19898031 -0.06738022 0 0 Z " fill="#5F6E7C" transform="translate(274.25,303.9375)"/>
<path d="M0 0 C0 0.66 0 1.32 0 2 C0.639375 2.28875 1.27875 2.5775 1.9375 2.875 C4 4 4 4 5 6 C5 7.98 5 9.96 5 12 C-1.93 12 -8.86 12 -16 12 C-15 5 -15 5 -13.0625 2.0625 C-8.73926773 -0.84906459 -5.06336609 -0.44243005 0 0 Z " fill="#5F6C7A" transform="translate(429,289)"/>
<path d="M0 0 C1.63001953 0.01353516 1.63001953 0.01353516 3.29296875 0.02734375 C4.12441406 0.03894531 4.95585937 0.05054688 5.8125 0.0625 C6.28182866 3.41484757 6.58695787 5.96169824 4.5703125 8.828125 C0.6571209 12.54295205 -2.85447667 13.81777565 -8.171875 14.34765625 C-10.1875 14.0625 -10.1875 14.0625 -11.92578125 12.77734375 C-14.03315222 9.91314606 -13.61442846 7.47792767 -13.1875 4.0625 C-9.35888059 0.10185923 -5.27170896 -0.05668504 0 0 Z " fill="#596876" transform="translate(493.1875,303.9375)"/>
<path d="M0 0 C3 2.0625 3 2.0625 5 5 C5.33 7.31 5.66 9.62 6 12 C-0.93 12 -7.86 12 -15 12 C-15 5.83836226 -14.97473389 5.09163783 -11 1 C-7.51390112 -0.74304944 -3.80359929 -0.57152528 0 0 Z " fill="#5D6A78" transform="translate(243,289)"/>
<path d="M0 0 C0.33 2.31 0.66 4.62 1 7 C0.62875 6.525625 0.2575 6.05125 -0.125 5.5625 C-2.62646962 3.47794198 -4.81593418 3.35378509 -8 3 C-8 5.31 -8 7.62 -8 10 C-6.35 9.67 -4.7 9.34 -3 9 C-3 10.98 -3 12.96 -3 15 C-3.33 14.34 -3.66 13.68 -4 13 C-5.32 13 -6.64 13 -8 13 C-8 15.31 -8 17.62 -8 20 C-5.69 20 -3.38 20 -1 20 C-0.67 18.35 -0.34 16.7 0 15 C0.66 15 1.32 15 2 15 C2 17.64 2 20.28 2 23 C-3.61 22.67 -9.22 22.34 -15 22 C-15 21.34 -15 20.68 -15 20 C-14.34 20 -13.68 20 -13 20 C-13 14.39 -13 8.78 -13 3 C-13.66 3 -14.32 3 -15 3 C-15 2.34 -15 1.68 -15 1 C-12.8750734 0.83240016 -10.75005624 0.66594799 -8.625 0.5 C-7.44164062 0.4071875 -6.25828125 0.314375 -5.0390625 0.21875 C-3.36213157 0.09804546 -1.68126944 0 0 0 Z " fill="#8CCECD" transform="translate(301,340)"/>
<path d="M0 0 C0.33 2.31 0.66 4.62 1 7 C0.62875 6.525625 0.2575 6.05125 -0.125 5.5625 C-2.62646962 3.47794198 -4.81593418 3.35378509 -8 3 C-8 5.64 -8 8.28 -8 11 C-6.35 10.34 -4.7 9.68 -3 9 C-3 10.98 -3 12.96 -3 15 C-3.33 14.34 -3.66 13.68 -4 13 C-5.32 13 -6.64 13 -8 13 C-8 15.31 -8 17.62 -8 20 C-4.535 19.505 -4.535 19.505 -1 19 C-0.67 17.68 -0.34 16.36 0 15 C0.66 15 1.32 15 2 15 C2 17.64 2 20.28 2 23 C-3.61 22.67 -9.22 22.34 -15 22 C-15 21.34 -15 20.68 -15 20 C-14.34 20 -13.68 20 -13 20 C-13 14.39 -13 8.78 -13 3 C-13.66 3 -14.32 3 -15 3 C-15 2.34 -15 1.68 -15 1 C-12.8750734 0.83240016 -10.75005624 0.66594799 -8.625 0.5 C-7.44164062 0.4071875 -6.25828125 0.314375 -5.0390625 0.21875 C-3.36213157 0.09804546 -1.68126944 0 0 0 Z " fill="#8ED0CE" transform="translate(354,340)"/>
<path d="M0 0 C0.33 2.31 0.66 4.62 1 7 C0.62875 6.525625 0.2575 6.05125 -0.125 5.5625 C-2.62646962 3.47794198 -4.81593418 3.35378509 -8 3 C-8 5.64 -8 8.28 -8 11 C-6.35 10.34 -4.7 9.68 -3 9 C-3 10.98 -3 12.96 -3 15 C-4.65 14.01 -6.3 13.02 -8 12 C-8 14.64 -8 17.28 -8 20 C-4.535 19.505 -4.535 19.505 -1 19 C-0.67 17.68 -0.34 16.36 0 15 C0.66 15 1.32 15 2 15 C2 17.64 2 20.28 2 23 C-3.61 22.67 -9.22 22.34 -15 22 C-15 21.34 -15 20.68 -15 20 C-14.34 20 -13.68 20 -13 20 C-13 14.39 -13 8.78 -13 3 C-13.66 3 -14.32 3 -15 3 C-15 2.34 -15 1.68 -15 1 C-12.8750734 0.83240016 -10.75005624 0.66594799 -8.625 0.5 C-7.44164062 0.4071875 -6.25828125 0.314375 -5.0390625 0.21875 C-3.36213157 0.09804546 -1.68126944 0 0 0 Z " fill="#89CECC" transform="translate(505,340)"/>
<path d="M0 0 C2.10304477 -0.1080023 4.20766909 -0.18558987 6.3125 -0.25 C8.07013672 -0.31960938 8.07013672 -0.31960938 9.86328125 -0.390625 C13 0 13 0 14.8984375 1.60546875 C16.33372962 4.72544771 16.36317105 7.13635778 16.3125 10.5625 C16.30863281 11.69816406 16.30476563 12.83382813 16.30078125 14.00390625 C16 17 16 17 14 20 C12.68 19.67 11.36 19.34 10 19 C10.33 18.67 10.66 18.34 11 18 C11.07313567 15.46950598 11.09247527 12.96695163 11.0625 10.4375 C11.05798828 9.72658203 11.05347656 9.01566406 11.04882812 8.28320312 C11.03700864 6.52209987 11.01907263 4.76103964 11 3 C8.525 2.01 8.525 2.01 6 1 C6 7.27 6 13.54 6 20 C6.99 20.33 7.98 20.66 9 21 C6.03 21 3.06 21 0 21 C0.495 19.515 0.495 19.515 1 18 C1.22797562 15.26710707 1.41668187 12.54957796 1.5625 9.8125 C1.60568359 9.06291016 1.64886719 8.31332031 1.69335938 7.54101562 C1.79922685 5.69421625 1.9000976 3.84713166 2 2 C1.34 2 0.68 2 0 2 C0 1.34 0 0.68 0 0 Z " fill="#8FD7D4" transform="translate(239,341)"/>
<path d="M0 0 C1.39456452 0.00667256 2.78911118 0.01863093 4.18359375 0.03515625 C4.89451172 0.03966797 5.60542969 0.04417969 6.33789062 0.04882812 C8.09899388 0.06064761 9.86005411 0.07858362 11.62109375 0.09765625 C11.95109375 2.40765625 12.28109375 4.71765625 12.62109375 7.09765625 C11.96109375 7.09765625 11.30109375 7.09765625 10.62109375 7.09765625 C10.29109375 5.77765625 9.96109375 4.45765625 9.62109375 3.09765625 C8.63109375 3.09765625 7.64109375 3.09765625 6.62109375 3.09765625 C6.62109375 8.70765625 6.62109375 14.31765625 6.62109375 20.09765625 C7.28109375 20.09765625 7.94109375 20.09765625 8.62109375 20.09765625 C8.62109375 20.75765625 8.62109375 21.41765625 8.62109375 22.09765625 C5.65109375 22.09765625 2.68109375 22.09765625 -0.37890625 22.09765625 C-0.37890625 21.43765625 -0.37890625 20.77765625 -0.37890625 20.09765625 C0.28109375 20.09765625 0.94109375 20.09765625 1.62109375 20.09765625 C1.62109375 14.48765625 1.62109375 8.87765625 1.62109375 3.09765625 C-1.49222873 3.76633939 -1.49222873 3.76633939 -2.56640625 6.16015625 C-2.83453125 6.79953125 -3.10265625 7.43890625 -3.37890625 8.09765625 C-3.70890625 8.09765625 -4.03890625 8.09765625 -4.37890625 8.09765625 C-4.42132348 5.7647085 -4.41983562 3.43063058 -4.37890625 1.09765625 C-3.37890625 0.09765625 -3.37890625 0.09765625 0 0 Z " fill="#8DCFCD" transform="translate(377.37890625,339.90234375)"/>
<path d="M0 0 C1.39456452 0.00667256 2.78911118 0.01863093 4.18359375 0.03515625 C4.89451172 0.03966797 5.60542969 0.04417969 6.33789062 0.04882812 C8.09899388 0.06064761 9.86005411 0.07858362 11.62109375 0.09765625 C11.95109375 2.40765625 12.28109375 4.71765625 12.62109375 7.09765625 C11.96109375 7.09765625 11.30109375 7.09765625 10.62109375 7.09765625 C10.29109375 6.10765625 9.96109375 5.11765625 9.62109375 4.09765625 C8.63109375 3.76765625 7.64109375 3.43765625 6.62109375 3.09765625 C6.62109375 8.70765625 6.62109375 14.31765625 6.62109375 20.09765625 C7.28109375 20.09765625 7.94109375 20.09765625 8.62109375 20.09765625 C8.62109375 20.75765625 8.62109375 21.41765625 8.62109375 22.09765625 C5.65109375 22.09765625 2.68109375 22.09765625 -0.37890625 22.09765625 C-0.37890625 21.43765625 -0.37890625 20.77765625 -0.37890625 20.09765625 C0.28109375 20.09765625 0.94109375 20.09765625 1.62109375 20.09765625 C1.62109375 14.48765625 1.62109375 8.87765625 1.62109375 3.09765625 C0.63109375 3.09765625 -0.35890625 3.09765625 -1.37890625 3.09765625 C-2.03890625 4.41765625 -2.69890625 5.73765625 -3.37890625 7.09765625 C-3.70890625 7.09765625 -4.03890625 7.09765625 -4.37890625 7.09765625 C-4.42144981 5.09810879 -4.41971408 3.09723989 -4.37890625 1.09765625 C-3.37890625 0.09765625 -3.37890625 0.09765625 0 0 Z " fill="#8ACECC" transform="translate(476.37890625,339.90234375)"/>
<path d="M0 0 C0.66 0.66 1.32 1.32 2 2 C1.625 4.125 1.625 4.125 1 6 C0.34 4.68 -0.32 3.36 -1 2 C-2.98 2 -4.96 2 -7 2 C-7 4.97 -7 7.94 -7 11 C-5.68 11 -4.36 11 -3 11 C-3 10.34 -3 9.68 -3 9 C-2.34 9 -1.68 9 -1 9 C-1 11.31 -1 13.62 -1 16 C-1.66 16 -2.32 16 -3 16 C-3.33 15.34 -3.66 14.68 -4 14 C-4.99 13.67 -5.98 13.34 -7 13 C-6.51515724 17.64586892 -6.51515724 17.64586892 -5 22 C-7.97 22 -10.94 22 -14 22 C-13.67 21.34 -13.34 20.68 -13 20 C-12.76725791 17.12089412 -12.58027243 14.25853505 -12.4375 11.375 C-12.39431641 10.57320313 -12.35113281 9.77140625 -12.30664062 8.9453125 C-12.20048543 6.9637489 -12.09973145 4.98189729 -12 3 C-12.66 3 -13.32 3 -14 3 C-14 2.34 -14 1.68 -14 1 C-11.70954632 0.77872902 -9.41755236 0.5733496 -7.125 0.375 C-5.84882813 0.25898438 -4.57265625 0.14296875 -3.2578125 0.0234375 C-2.18273437 0.01570313 -1.10765625 0.00796875 0 0 Z " fill="#8FD2D0" transform="translate(318,340)"/>
<path d="M0 0 C2.97 0 5.94 0 9 0 C8.67 0.66 8.34 1.32 8 2 C7.76725791 4.87910588 7.58027243 7.74146495 7.4375 10.625 C7.39431641 11.42679687 7.35113281 12.22859375 7.30664062 13.0546875 C7.20048543 15.0362511 7.09973145 17.01810271 7 19 C9.45963073 18.65820255 9.45963073 18.65820255 12 18 C13.36020151 16.03241727 13.36020151 16.03241727 14 14 C14.66 14 15.32 14 16 14 C16 16.64 16 19.28 16 22 C10.72 21.67 5.44 21.34 0 21 C0.33 20.34 0.66 19.68 1 19 C1.23274209 16.12089412 1.41972757 13.25853505 1.5625 10.375 C1.60568359 9.57320313 1.64886719 8.77140625 1.69335938 7.9453125 C1.79951457 5.9637489 1.90026855 3.98189729 2 2 C1.34 2 0.68 2 0 2 C0 1.34 0 0.68 0 0 Z " fill="#8ED0CE" transform="translate(322,341)"/>
<path d="M0 0 C0.33 2.31 0.66 4.62 1 7 C0.62875 6.525625 0.2575 6.05125 -0.125 5.5625 C-2.62646962 3.47794198 -4.81593418 3.35378509 -8 3 C-8 5.64 -8 8.28 -8 11 C-6.35 10.34 -4.7 9.68 -3 9 C-3 10.98 -3 12.96 -3 15 C-3.66 14.34 -4.32 13.68 -5 13 C-6.32 12.67 -7.64 12.34 -9 12 C-9 14.97 -9 17.94 -9 21 C-7.02 21 -5.04 21 -3 21 C-3 21.33 -3 21.66 -3 22 C-6.96 22 -10.92 22 -15 22 C-15 21.34 -15 20.68 -15 20 C-14.34 20 -13.68 20 -13 20 C-13 14.39 -13 8.78 -13 3 C-13.66 3 -14.32 3 -15 3 C-15 2.34 -15 1.68 -15 1 C-12.8750734 0.83240016 -10.75005624 0.66594799 -8.625 0.5 C-7.44164062 0.4071875 -6.25828125 0.314375 -5.0390625 0.21875 C-3.36213157 0.09804546 -1.68126944 0 0 0 Z " fill="#8DD4D1" transform="translate(217,340)"/>
<path d="M0 0 C0.66 0 1.32 0 2 0 C2.20681396 0.56509277 2.41362793 1.13018555 2.62670898 1.71240234 C3.56243071 4.26704615 4.49994317 6.82102914 5.4375 9.375 C5.76298828 10.26445312 6.08847656 11.15390625 6.42382812 12.0703125 C6.89272461 13.34648437 6.89272461 13.34648437 7.37109375 14.6484375 C7.65911865 15.43395996 7.94714355 16.21948242 8.24389648 17.02880859 C8.97610705 19.03323485 8.97610705 19.03323485 10 21 C7.03 21 4.06 21 1 21 C1 20.34 1 19.68 1 19 C1.66 19 2.32 19 3 19 C3 17.68 3 16.36 3 15 C0.69 15 -1.62 15 -4 15 C-4.33 15.66 -4.66 16.32 -5 17 C-4.46246904 10.81839396 -2.45417612 5.673142 0 0 Z " fill="#8CD3D0" transform="translate(462,341)"/>
<path d="M0 0 C0.33 1.98 0.66 3.96 1 6 C0.4225 5.484375 -0.155 4.96875 -0.75 4.4375 C-1.86375 3.7259375 -1.86375 3.7259375 -3 3 C-4.32 3.33 -5.64 3.66 -7 4 C-7 9.28 -7 14.56 -7 20 C-5.35 19.67 -3.7 19.34 -2 19 C-0.62533375 16.52363988 -0.62533375 16.52363988 0 14 C0.66 14 1.32 14 2 14 C1.25 19.75 1.25 19.75 -1 22 C-6.68348624 22.5412844 -6.68348624 22.5412844 -9 22 C-11.42628059 19.71676543 -11.96204638 18.24764737 -12.46875 14.94140625 C-12.55248714 5.88732783 -12.55248714 5.88732783 -9.9375 1.6875 C-6.36957469 -0.36215922 -4.05178905 -0.39723422 0 0 Z " fill="#90D4D2" transform="translate(370,340)"/>
<path d="M0 0 C5 1 5 1 6 2 C6.0736312 4.46811799 6.09230745 6.90786062 6.0625 9.375 C6.05798828 10.06078125 6.05347656 10.7465625 6.04882812 11.453125 C6.03623775 13.3021121 6.01836694 15.15106125 6 17 C6 17.99 6 18.98 6 20 C4.02 19.67 2.04 19.34 0 19 C0 12.73 0 6.46 0 0 Z " fill="#607582" transform="translate(245,342)"/>
<path d="M0 0 C1.65 0 3.3 0 5 0 C6.72095223 1.72095223 6.17199761 3.97163914 6.1875 6.3125 C6.20167969 7.27800781 6.21585937 8.24351562 6.23046875 9.23828125 C5.99873224 12.01519158 5.42140844 13.63473141 4 16 C3.01 16 2.02 16 1 16 C1 18.97 1 21.94 1 25 C0.67 25 0.34 25 0 25 C0 16.75 0 8.5 0 0 Z " fill="#617380" transform="translate(405,334)"/>
<path d="M0 0 C5 1 5 1 6 2 C6.23828125 4.1796875 6.23828125 4.1796875 6.3125 6.875 C6.34988281 7.75929688 6.38726562 8.64359375 6.42578125 9.5546875 C6 12 6 12 4.10546875 13.8203125 C2 15 2 15 0 15 C0 10.05 0 5.1 0 0 Z " fill="#5F6F7D" transform="translate(272,334)"/>
<path d="M0 0 C1.65 0 3.3 0 5 0 C6.72393401 3.44786802 6.50222927 7.22993228 6 11 C4.125 13.5625 4.125 13.5625 2 15 C1.34 15 0.68 15 0 15 C0 10.05 0 5.1 0 0 Z " fill="#586775" transform="translate(188,334)"/>
<path d="M0 0 C0.66 0.33 1.32 0.66 2 1 C1.360625 2.010625 0.72125 3.02125 0.0625 4.0625 C-2.06848956 7.75219924 -2.65539613 10.77860255 -3 15 C-4.32 15 -5.64 15 -7 15 C-7.45675183 9.29060212 -6.62105556 6.44872541 -3 2 C-2.01 1.34 -1.02 0.68 0 0 Z " fill="#8BC4C5" transform="translate(332,277)"/>
<path d="M0 0 C-0.61488281 0.07476562 -1.22976563 0.14953125 -1.86328125 0.2265625 C-4.37475548 0.63512769 -6.62108228 1.08892513 -9 2 C-11.14665717 4.95234447 -11.14665717 4.95234447 -12 8 C-12.99 8 -13.98 8 -15 8 C-14.51164432 1.52928723 -14.51164432 1.52928723 -12.1875 -0.875 C-7.1720673 -3.45436539 -4.81121278 -3.20747519 0 0 Z " fill="#8AC6C6" transform="translate(273,289)"/>
<path d="M0 0 C0.33 0 0.66 0 1 0 C1 5.28 1 10.56 1 16 C2.65 15.67 4.3 15.34 6 15 C7.36020151 13.03241727 7.36020151 13.03241727 8 11 C8.66 11 9.32 11 10 11 C10 13.64 10 16.28 10 19 C6.7 18.34 3.4 17.68 0 17 C0 11.39 0 5.78 0 0 Z " fill="#84BDBE" transform="translate(328,344)"/>
<path d="M0 0 C1.32 0.33 2.64 0.66 4 1 C3.01 1 2.02 1 1 1 C1 3.31 1 5.62 1 8 C3.31 8 5.62 8 8 8 C8.33 6.35 8.66 4.7 9 3 C9.66 3 10.32 3 11 3 C11 5.64 11 8.28 11 11 C7.37 10.34 3.74 9.68 0 9 C0 6.03 0 3.06 0 0 Z " fill="#81B7B9" transform="translate(292,352)"/>
<path d="M0 0 C0.66 0 1.32 0 2 0 C2 0.66 2 1.32 2 2 C3.32 2 4.64 2 6 2 C6 7.61 6 13.22 6 19 C5.67 19 5.34 19 5 19 C5 13.72 5 8.44 5 3 C1.88667752 3.66868314 1.88667752 3.66868314 0.8125 6.0625 C0.544375 6.701875 0.27625 7.34125 0 8 C-0.33 8 -0.66 8 -1 8 C-1.04241723 5.66705225 -1.04092937 3.33297433 -1 1 C-0.67 0.67 -0.34 0.34 0 0 Z " fill="#83BABC" transform="translate(374,340)"/>
<path d="M0 0 C0.66 0 1.32 0 2 0 C2 0.66 2 1.32 2 2 C3.32 2 4.64 2 6 2 C6 7.61 6 13.22 6 19 C5.67 19 5.34 19 5 19 C5 13.72 5 8.44 5 3 C4.01 3 3.02 3 2 3 C1.34 4.32 0.68 5.64 0 7 C-0.33 7 -0.66 7 -1 7 C-1.04254356 5.00045254 -1.04080783 2.99958364 -1 1 C-0.67 0.67 -0.34 0.34 0 0 Z " fill="#7FB8BA" transform="translate(473,340)"/>
<path d="M0 0 C0.33 2.31 0.66 4.62 1 7 C0.62875 6.525625 0.2575 6.05125 -0.125 5.5625 C-2.62646962 3.47794198 -4.81593418 3.35378509 -8 3 C-8 5.64 -8 8.28 -8 11 C-8.33 11 -8.66 11 -9 11 C-9 8.03 -9 5.06 -9 2 C-2.25 0 -2.25 0 0 0 Z " fill="#83BEBF" transform="translate(217,340)"/>
<path d="M0 0 C0.66 0 1.32 0 2 0 C2 2.64 2 5.28 2 8 C-1.3 7.34 -4.6 6.68 -8 6 C-8 5.67 -8 5.34 -8 5 C-4.535 4.505 -4.535 4.505 -1 4 C-0.67 2.68 -0.34 1.36 0 0 Z " fill="#85BFBF" transform="translate(354,355)"/>
<path d="M0 0 C0.33 2.31 0.66 4.62 1 7 C0.62875 6.525625 0.2575 6.05125 -0.125 5.5625 C-2.62646962 3.47794198 -4.81593418 3.35378509 -8 3 C-8 5.64 -8 8.28 -8 11 C-8.33 11 -8.66 11 -9 11 C-9 8.03 -9 5.06 -9 2 C-2.25 0 -2.25 0 0 0 Z " fill="#82BEBF" transform="translate(505,340)"/>
<path d="M0 0 C0.33 2.31 0.66 4.62 1 7 C0.62875 6.525625 0.2575 6.05125 -0.125 5.5625 C-2.62646962 3.47794198 -4.81593418 3.35378509 -8 3 C-8 5.31 -8 7.62 -8 10 C-8.33 10 -8.66 10 -9 10 C-9 7.36 -9 4.72 -9 2 C-2.25 0 -2.25 0 0 0 Z " fill="#83B9BB" transform="translate(354,340)"/>
<path d="M0 0 C0.33 0 0.66 0 1 0 C1 2.31 1 4.62 1 7 C-2.3 6.67 -5.6 6.34 -9 6 C-9 5.67 -9 5.34 -9 5 C-7.329375 4.87625 -7.329375 4.87625 -5.625 4.75 C-1.94246056 4.42126213 -1.94246056 4.42126213 -0.5625 1.9375 C-0.376875 1.298125 -0.19125 0.65875 0 0 Z " fill="#88C7C7" transform="translate(435,355)"/>
<path d="M0 0 C0.66 0.33 1.32 0.66 2 1 C2.625 4.0625 2.625 4.0625 3 7 C1.35 7 -0.3 7 -2 7 C-1.42415568 4.61435923 -0.77772405 2.33317216 0 0 Z " fill="#607582" transform="translate(461,348)"/>
<path d="M0 0 C1.9451 2.91765 2.45276317 4.62537285 3 8 C1.35 8 -0.3 8 -2 8 C-1.34 5.36 -0.68 2.72 0 0 Z " fill="#5E717E" transform="translate(227,347)"/>
<path d="M0 0 C2 2 2 2 2 5 C2.66 5 3.32 5 4 5 C4 5.66 4 6.32 4 7 C2.02 7 0.04 7 -2 7 C-1.34 4.69 -0.68 2.38 0 0 Z " fill="#86C5C5" transform="translate(222,355)"/>
<path d="M0 0 C0.66 0 1.32 0 2 0 C1.6875 2.875 1.6875 2.875 1 6 C0.01 6.66 -0.98 7.32 -2 8 C-3.32 7.34 -4.64 6.68 -6 6 C-5.38125 5.938125 -4.7625 5.87625 -4.125 5.8125 C-1.72238859 5.171081 -1.72238859 5.171081 -0.75 2.4375 C-0.5025 1.633125 -0.255 0.82875 0 0 Z " fill="#80B4B6" transform="translate(370,354)"/>
<path d="M0 0 C0.7425 0.0825 1.485 0.165 2.25 0.25 C2.58 0.91 2.91 1.57 3.25 2.25 C-0.05 2.91 -3.35 3.57 -6.75 4.25 C-3.42692308 0.31153846 -3.42692308 0.31153846 0 0 Z " fill="#95D7D5" transform="translate(338.75,275.75)"/>
<path d="M0 0 C0.66 0 1.32 0 2 0 C2 2.31 2 4.62 2 7 C1.34 7 0.68 7 0 7 C-0.103125 6.360625 -0.20625 5.72125 -0.3125 5.0625 C-0.539375 4.381875 -0.76625 3.70125 -1 3 C-1.99 2.67 -2.98 2.34 -4 2 C-2.68 2 -1.36 2 0 2 C0 1.34 0 0.68 0 0 Z " fill="#7EB1B4" transform="translate(315,349)"/>
<path d="M0 0 C0.66 0 1.32 0 2 0 C2.33 0.99 2.66 1.98 3 3 C1.625 5.6875 1.625 5.6875 0 8 C-0.33 8 -0.66 8 -1 8 C-1.04241723 5.66705225 -1.04092937 3.33297433 -1 1 C-0.67 0.67 -0.34 0.34 0 0 Z " fill="#87C2C2" transform="translate(374,340)"/>
<path d="M0 0 C2.31 0 4.62 0 7 0 C7.33 1.98 7.66 3.96 8 6 C7.13375 5.071875 7.13375 5.071875 6.25 4.125 C4.19750179 2.18652947 2.56633418 1.09985751 0 0 Z " fill="#86BFC0" transform="translate(363,340)"/>
<path d="M0 0 C0.66 0 1.32 0 2 0 C2.33 0.99 2.66 1.98 3 3 C1.68 4.32 0.36 5.64 -1 7 C-1.04254356 5.00045254 -1.04080783 2.99958364 -1 1 C-0.67 0.67 -0.34 0.34 0 0 Z " fill="#85C2C2" transform="translate(473,340)"/>
<path d="M0 0 C0.66 0 1.32 0 2 0 C2.33 2.31 2.66 4.62 3 7 C2.34 7 1.68 7 1 7 C0.34 5.02 -0.32 3.04 -1 1 C-0.67 0.67 -0.34 0.34 0 0 Z " fill="#8DCECC" transform="translate(387,340)"/>
</svg>
